<svg width="36" height="28" viewBox="0 0 36 28" fill="none" xmlns="http://www.w3.org/2000/svg">
<path d="M32.8212 0.315674H3.17911C1.69027 0.315674 0.484375 1.52157 0.484375 3.01041V24.5683C0.484375 26.0571 1.69027 27.263 3.17911 27.263H32.8212C34.3101 27.263 35.516 26.0571 35.516 24.5683V3.01041C35.516 1.52157 34.3101 0.315674 32.8212 0.315674ZM31.4738 23.2209H4.52648V13.7894L7.61061 10.7052C8.88387 9.43197 10.948 9.43197 12.2213 10.7052L18.0002 16.4841L21.0843 13.4C22.3576 12.1267 24.4217 12.1267 25.695 13.4L31.4738 19.1788V23.2209ZM28.7791 9.74725C27.2903 9.74725 26.0844 8.54136 26.0844 7.05252C26.0844 5.56367 27.2903 4.35778 28.7791 4.35778C30.268 4.35778 31.4738 5.56367 31.4738 7.05252C31.4738 8.54136 30.268 9.74725 28.7791 9.74725Z" fill="black"/>
</svg>
