<svg width="63" height="61" viewBox="0 0 63 61" fill="none" xmlns="http://www.w3.org/2000/svg">
    <path
        d="M39.2615 41.3628V36.249C40.412 35.6788 43.7026 31.7616 44.0478 28.7009C44.9529 28.6319 46.3745 27.8009 46.7938 24.5204C47.0188 22.7586 46.124 21.7691 45.5819 21.4572C45.5819 21.4572 46.9319 18.8926 46.9319 15.7961C46.9319 9.58793 44.4953 4.28998 39.2615 4.28998C39.2615 4.28998 37.4436 0.45459 31.591 0.45459C20.745 0.45459 16.2501 7.41198 16.2501 15.7961C16.2501 18.619 17.6001 21.4572 17.6001 21.4572C17.058 21.7691 16.1632 22.7612 16.3882 24.5204C16.8075 27.8009 18.2291 28.6319 19.1342 28.7009C19.4794 31.7616 22.77 35.6788 23.9205 36.249V41.3628C21.3637 49.0336 0.90918 43.9198 0.90918 61.8182H62.2728C62.2728 43.9198 41.8183 49.0336 39.2615 41.3628Z"
        fill="white" />
</svg>
