<svg width="24" height="24" viewBox="0 0 24 24" fill="none" xmlns="http://www.w3.org/2000/svg">
<path d="M13.4065 17.1208C13.4065 17.1208 17.0033 20.7176 17.2617 20.976C18.0937 21.808 19.4417 21.808 20.2729 20.976C21.1049 20.144 21.1049 18.796 20.2729 17.964C20.0145 17.7056 16.4177 14.1088 16.4177 14.1088L13.4065 17.1208Z" fill="#5CA3E1"/>
<path d="M19.1983 8.80244L16.6375 8.16244L15.9975 5.60164L18.9623 2.63684C17.2591 2.09524 15.3215 2.49604 13.9703 3.84644C12.0423 5.77444 12.6591 8.28404 14.5879 10.212C16.5159 12.14 19.0255 12.7576 20.9535 10.8288C22.3047 9.47764 22.7055 7.54004 22.1631 5.83764L19.1983 8.80244Z" fill="#5CA3E1"/>
<path d="M10.0001 9.20002L7.2001 6.40002L6.4001 4.00002L3.2001 2.40002L1.6001 4.00002L3.2001 7.20002L5.6001 8.00002L8.4001 10.8L10.0001 9.20002Z" fill="#5CA3E1"/>
<path d="M14.3032 7.10327C11.6119 9.79447 4.19435 17.2121 3.90315 17.5033C2.96555 18.4409 2.96555 19.9601 3.90315 20.8977C4.84075 21.8353 6.35995 21.8353 7.29755 20.8977C7.58875 20.6065 15.0064 13.1889 17.6975 10.4977L14.3032 7.10327ZM5.59995 20.0001C5.15835 20.0001 4.79995 19.6417 4.79995 19.2001C4.79995 18.7585 5.15835 18.4001 5.59995 18.4001C6.04155 18.4001 6.39995 18.7585 6.39995 19.2001C6.39995 19.6417 6.04155 20.0001 5.59995 20.0001Z" fill="#5CA3E1"/>
</svg>
