<svg width="24" height="24" viewBox="0 0 24 24" fill="none" xmlns="http://www.w3.org/2000/svg">
<path d="M5.6001 17.6V3.19995H20.0001V17.6C20.0001 19.3672 18.5673 20.8 16.8001 20.8" stroke="#0051EE" stroke-width="2" stroke-miterlimit="10" stroke-linecap="round" stroke-linejoin="round"/>
<path d="M13.5999 17.6H3.19995C3.19995 19.3672 4.63275 20.8 6.39995 20.8H16.7999C15.0327 20.8 13.5999 19.3672 13.5999 17.6Z" stroke="#0051EE" stroke-width="2" stroke-miterlimit="10" stroke-linecap="round" stroke-linejoin="round"/>
<path d="M12 10.4H16.8" stroke="#0051EE" stroke-width="2" stroke-miterlimit="10" stroke-linejoin="round"/>
<path d="M8.80005 10.4H10.4" stroke="#0051EE" stroke-width="2" stroke-miterlimit="10" stroke-linejoin="round"/>
<path d="M12 13.6H16.8" stroke="#0051EE" stroke-width="2" stroke-miterlimit="10" stroke-linejoin="round"/>
<path d="M8.80005 13.6H10.4" stroke="#0051EE" stroke-width="2" stroke-miterlimit="10" stroke-linejoin="round"/>
<path d="M12 7.19995H16.8" stroke="#0051EE" stroke-width="2" stroke-miterlimit="10" stroke-linejoin="round"/>
<path d="M8.80005 7.19995H10.4" stroke="#0051EE" stroke-width="2" stroke-miterlimit="10" stroke-linejoin="round"/>
<path d="M13.5999 17.6H3.19995C3.19995 19.3672 4.63275 20.8 6.39995 20.8H16.7999C15.0327 20.8 13.5999 19.3672 13.5999 17.6Z" fill="#0051EE"/>
</svg>
